<svg width="40" height="40" viewBox="0 0 40 40" fill="none" xmlns="http://www.w3.org/2000/svg">
<path fill-rule="evenodd" clip-rule="evenodd" d="M6.25 5.62501H18.125C18.4702 5.62501 18.75 5.90481 18.75 6.25001V18.125C18.75 18.4702 18.4702 18.75 18.125 18.75H6.25C5.9048 18.75 5.625 18.4702 5.625 18.125V6.25001C5.625 5.90481 5.9048 5.62501 6.25 5.62501ZM28.2935 4.63544L35.3646 11.7065C35.6086 11.9506 35.6086 12.3463 35.3646 12.5904L28.2935 19.6615C28.0494 19.9055 27.6537 19.9055 27.4096 19.6615L20.3386 12.5904C20.0945 12.3463 20.0945 11.9506 20.3386 11.7065L27.4096 4.63544C27.6537 4.39138 28.0494 4.39138 28.2935 4.63544ZM6.25 21.25H18.125C18.4702 21.25 18.75 21.5298 18.75 21.875V33.75C18.75 34.0952 18.4702 34.375 18.125 34.375H6.25C5.9048 34.375 5.625 34.0952 5.625 33.75V21.875C5.625 21.5298 5.9048 21.25 6.25 21.25ZM21.875 21.25H33.75C34.0952 21.25 34.375 21.5298 34.375 21.875V33.75C34.375 34.0952 34.0952 34.375 33.75 34.375H21.875C21.5298 34.375 21.25 34.0952 21.25 33.75V21.875C21.25 21.5298 21.5298 21.25 21.875 21.25Z" fill="#141414"/>
</svg>
