<svg width="1920" height="992" viewBox="0 0 1920 992" fill="none" xmlns="http://www.w3.org/2000/svg">
<path d="M1533.69 620.253L1488.38 574.8L1444.24 619.196L1544.58 719.733L1998.25 0H1924.02L1533.69 620.253Z" fill="#171717"/>
<path d="M706.754 327.867L737.265 383.485L1109.13 992.001L1691.65 98.2539H1103.17L1319.79 427.042L1369.35 390.042L1214.69 160.429H1580.01L1109.13 880.18L774.792 327.867L737.265 272.249L706.754 327.867Z" fill="#171717"/>
<path d="M-57.4403 620.253L-12.249 574.8L32.0048 619.196L-68.3291 719.733L-522 0H-447.891L-57.4403 620.253Z" fill="#171717"/>
<path d="M773.045 327.867L735.359 383.485L368.485 992.001L-222.506 98.2539H374.59L156.93 427.042L107.152 390.042L263.06 160.429H-104.401L362.028 880.18L704.718 327.867L735.359 272.249L773.045 327.867Z" fill="#171717"/>
</svg>
