<svg width="1920" height="992" viewBox="0 0 1920 992" fill="none" xmlns="http://www.w3.org/2000/svg">
<path d="M1659.69 620.253L1614.38 574.8L1570.24 619.196L1670.58 719.733L2124.25 0H2050.02L1659.69 620.253Z" fill="#242424"/>
<path d="M832.754 327.867L863.265 383.485L1235.13 992.001L1817.65 98.2539H1229.17L1445.79 427.042L1495.35 390.042L1340.69 160.429H1706.01L1235.13 880.18L900.792 327.867L863.265 272.249L832.754 327.867Z" fill="#242424"/>
<path d="M68.5597 620.253L113.751 574.8L158.005 619.196L57.6709 719.733L-396 0H-321.891L68.5597 620.253Z" fill="#242424"/>
<path d="M899.045 327.867L861.359 383.485L494.485 992.001L-96.5059 98.2539H500.59L282.93 427.042L233.152 390.042L389.06 160.429H21.5991L488.028 880.18L830.718 327.867L861.359 272.249L899.045 327.867Z" fill="#242424"/>
</svg>
