<svg width="80" height="80" viewBox="0 0 80 80" fill="none" xmlns="http://www.w3.org/2000/svg">
<rect width="80" height="80" rx="40" fill="white"/>
<path d="M21.2507 50.9362V58.7487H29.0632L52.1048 35.6862L44.2923 27.8737L21.2507 50.9362ZM62.1048 53.2487L53.2507 62.1029L42.4173 51.2695L46.1048 47.582L48.1882 49.6654L53.334 44.4987L56.2923 47.457L53.2507 50.4154L55.459 52.4987L58.4173 49.582L62.1048 53.2487ZM28.7715 37.5612L17.8965 26.7487L26.7507 17.8945L30.4173 21.582L25.2715 26.7487L27.5007 28.957L32.6257 23.7904L35.584 26.7487L32.6257 29.6862L34.709 31.7695L28.7715 37.5612ZM58.1465 29.582C58.959 28.7695 58.959 27.4987 58.1465 26.6445L53.2715 21.8529C52.5007 21.0404 51.1465 21.0404 50.334 21.8529L46.5006 25.6654L54.3132 33.4779L58.1465 29.582Z" fill="url(#paint0_linear_1166_3735)"/>
<defs>
<linearGradient id="paint0_linear_1166_3735" x1="17.8965" y1="39.9987" x2="65.1746" y2="43.7571" gradientUnits="userSpaceOnUse">
<stop stop-color="#0E45E6"/>
<stop offset="1" stop-color="#C600CA"/>
</linearGradient>
</defs>
</svg>
