<svg width="80" height="80" viewBox="0 0 80 80" fill="none" xmlns="http://www.w3.org/2000/svg">
<rect width="80" height="80" rx="40" fill="white"/>
<path d="M42.0827 21.25C34.2286 21.25 27.8952 27.3958 27.4994 35.125L23.4994 40.3958C22.9994 41.0417 23.4994 42.0833 24.3744 42.0833H27.4994V48.3333C27.4994 50.6458 29.3536 52.5 31.6661 52.5H33.7494V58.75H48.3327V48.9792C53.2702 46.6458 56.6661 41.6667 56.6661 35.8333C56.6661 27.7917 50.1661 21.25 42.0827 21.25ZM44.1661 44.1667H39.9994V42.0833H44.1661V44.1667ZM47.4994 34.7917C46.9445 35.7285 46.1546 36.5041 45.2077 37.0417V40H38.9577V37.0417C35.9786 35.3125 34.9369 31.5 36.6661 28.5417C38.3952 25.5833 42.2286 24.5 45.2077 26.2083C48.1869 27.9167 49.2286 31.7708 47.4994 34.7917Z" fill="url(#paint0_linear_1166_3704)"/>
<defs>
<linearGradient id="paint0_linear_1166_3704" x1="23.3008" y1="40" x2="59.0297" y2="42.5271" gradientUnits="userSpaceOnUse">
<stop stop-color="#0E45E6"/>
<stop offset="1" stop-color="#C600CA"/>
</linearGradient>
</defs>
</svg>
