<svg width="80" height="80" viewBox="0 0 80 80" fill="none" xmlns="http://www.w3.org/2000/svg">
<rect width="80" height="80" rx="40" fill="white"/>
<g clip-path="url(#clip0_1166_3728)">
<path fill-rule="evenodd" clip-rule="evenodd" d="M49.502 20.8004C49.6513 20.5606 49.8683 20.3705 50.1256 20.254C50.3829 20.1376 50.669 20.1 50.9477 20.1461L58.2934 21.3718C58.6669 21.4341 59.0004 21.6421 59.2206 21.9502C59.4408 22.2582 59.5296 22.6411 59.4677 23.0147L58.2448 30.3632C58.1982 30.6418 58.07 30.9003 57.8764 31.106C57.6829 31.3117 57.4328 31.4555 57.1576 31.5191C56.8824 31.5827 56.5945 31.5633 56.3303 31.4633C56.0662 31.3634 55.8376 31.1874 55.6734 30.9575L53.6905 28.1861L43.4791 34.7118C43.0437 34.9905 42.5221 35.1023 42.0107 35.0267C41.4993 34.9511 41.0324 34.6931 40.6963 34.3004L35.002 27.6432L24.3534 33.1147C23.848 33.3746 23.26 33.4231 22.7188 33.2495C22.1776 33.0758 21.7276 32.6944 21.4677 32.1889C21.2078 31.6835 21.1593 31.0955 21.3329 30.5544C21.5065 30.0132 21.888 29.5631 22.3934 29.3032L34.5505 23.0547C34.9797 22.8342 35.4708 22.765 35.9442 22.8583C36.4176 22.9517 36.8457 23.202 37.1591 23.5689L42.742 30.0975L51.1991 24.6918L49.5505 22.3861C49.3866 22.1562 49.2945 21.8828 49.2859 21.6006C49.2773 21.3184 49.3524 21.0399 49.502 20.8004ZM30.7991 34.8289L22.5077 39.5718C22.1801 39.7589 21.9078 40.0292 21.7181 40.3553C21.5285 40.6813 21.4283 41.0517 21.4277 41.4289V57.8575C21.4277 59.0404 22.3877 60.0004 23.5705 60.0004H30.7991V34.8289ZM34.3705 60.0004H44.8505V40.5375L40.1391 42.8918L35.4305 34.6518C35.1927 34.2328 34.8202 33.9065 34.3734 33.7261L34.3705 60.0004ZM56.4277 60.0004H48.422V38.7518L55.4705 35.2261C55.7972 35.063 56.1602 34.9861 56.525 35.0027C56.8897 35.0192 57.2442 35.1287 57.5548 35.3208C57.8653 35.5129 58.1217 35.7811 58.2994 36.1C58.4772 36.419 58.5705 36.7781 58.5705 37.1432V57.8575C58.5705 58.4258 58.3448 58.9709 57.9429 59.3727C57.541 59.7746 56.996 60.0004 56.4277 60.0004Z" fill="url(#paint0_linear_1166_3728)"/>
</g>
<defs>
<linearGradient id="paint0_linear_1166_3728" x1="21.2305" y1="40.0637" x2="62.1639" y2="43.1857" gradientUnits="userSpaceOnUse">
<stop stop-color="#0E45E6"/>
<stop offset="1" stop-color="#C600CA"/>
</linearGradient>
<clipPath id="clip0_1166_3728">
<rect width="40" height="40" fill="white" transform="translate(20 20)"/>
</clipPath>
</defs>
</svg>
