<svg width="80" height="80" viewBox="0 0 80 80" fill="none" xmlns="http://www.w3.org/2000/svg">
<rect width="80" height="80" rx="40" fill="white"/>
<path d="M40.4507 44.4579L38.5059 43.7214C39.0267 42.3464 39.9121 40.8548 41.3079 39.3037L42.8569 40.6975C41.6246 42.0673 40.8767 43.3329 40.4507 44.4579Z" fill="url(#paint0_linear_1166_3711)"/>
<path fill-rule="evenodd" clip-rule="evenodd" d="M31.2115 22.292C25.4531 22.292 21.25 28.167 21.25 34.5045C21.25 48.6503 40 57.7087 40 57.7087C40 57.7087 58.75 48.067 58.75 34.5045C58.75 28.1691 54.5469 22.292 48.7896 22.292C44.7937 22.292 41.8281 24.9285 40 28.668C38.1698 24.9285 35.2062 22.292 31.2115 22.292ZM32.7083 40.9993C32.7083 43.9232 35.9812 44.8566 38.376 44.0795C37.2323 47.466 38.2948 50.1045 39.2406 51.1253L40.7687 49.7087C40.3896 49.3003 39.5187 47.6107 40.2385 45.1024C41.4958 47.4326 47.2917 47.7264 47.2917 43.3316V31.667C44.2896 34.2076 41.0823 35.2118 38.4427 36.0389C35.1281 37.0764 32.7083 37.8337 32.7083 40.9993Z" fill="url(#paint1_linear_1166_3711)"/>
<defs>
<linearGradient id="paint0_linear_1166_3711" x1="38.5059" y1="41.8808" x2="43.1674" y2="42.1936" gradientUnits="userSpaceOnUse">
<stop stop-color="#0E45E6"/>
<stop offset="1" stop-color="#C600CA"/>
</linearGradient>
<linearGradient id="paint1_linear_1166_3711" x1="21.25" y1="40.0003" x2="61.3235" y2="43.3733" gradientUnits="userSpaceOnUse">
<stop stop-color="#0E45E6"/>
<stop offset="1" stop-color="#C600CA"/>
</linearGradient>
</defs>
</svg>
