<svg width="80" height="80" viewBox="0 0 80 80" fill="none" xmlns="http://www.w3.org/2000/svg">
<rect width="80" height="80" rx="40" fill="white"/>
<path d="M34.5318 57.4997C34.5983 57.5588 34.6822 57.5947 34.7709 57.6018C34.8596 57.6089 34.9482 57.5868 35.0232 57.5389C35.0981 57.4911 35.1554 57.42 35.1863 57.3366C35.2172 57.2532 35.2201 57.1619 35.1943 57.0768L29.9443 39.0809C29.8967 38.9172 29.8002 38.7719 29.6676 38.6647C29.535 38.5574 29.3728 38.4933 29.2027 38.4809C28.3527 38.4184 27.5048 38.3497 26.6568 38.2726L19.636 37.633C19.5618 37.6258 19.487 37.6388 19.4196 37.6707C19.3522 37.7026 19.2947 37.7522 19.2532 37.8142C19.2118 37.8762 19.1879 37.9483 19.1841 38.0227C19.1804 38.0972 19.1968 38.1713 19.2318 38.2372C23.0298 45.3413 28.4985 52.1122 34.5318 57.4997ZM39.6818 61.3038C39.7235 61.4497 39.8485 61.558 40.0006 61.558C40.0741 61.5559 40.1449 61.5299 40.2024 61.4841C40.2598 61.4383 40.3009 61.375 40.3193 61.3038L46.7443 39.2768C46.7635 39.2128 46.7669 39.1452 46.7545 39.0796C46.742 39.0141 46.714 38.9524 46.6727 38.9C46.6315 38.8475 46.5782 38.8057 46.5175 38.7781C46.4567 38.7505 46.3902 38.7379 46.3235 38.7413C42.1102 38.9221 37.891 38.9221 33.6777 38.7413C33.6113 38.738 33.545 38.7506 33.4844 38.7781C33.4239 38.8056 33.3708 38.8472 33.3296 38.8994C33.2884 38.9516 33.2603 39.0129 33.2476 39.0782C33.235 39.1435 33.2381 39.2109 33.2568 39.2747L39.6818 61.3038ZM44.8068 57.0768C44.6902 57.4726 45.161 57.7747 45.4693 57.4997C51.5027 52.1101 56.9714 45.3413 60.7693 38.2372C60.8042 38.1715 60.8207 38.0976 60.817 38.0233C60.8133 37.949 60.7896 37.8772 60.7484 37.8152C60.7072 37.7533 60.65 37.7037 60.5829 37.6716C60.5158 37.6396 60.4413 37.6262 60.3673 37.633L53.3464 38.2726C52.4964 38.3497 51.6485 38.4184 50.7985 38.4809C50.6284 38.4933 50.4662 38.5574 50.3336 38.6647C50.201 38.7719 50.1045 38.9172 50.0568 39.0809L44.8068 57.0768ZM60.4193 34.4913C60.492 34.485 60.5617 34.4596 60.6215 34.4179C60.6813 34.3761 60.7291 34.3194 60.7601 34.2534C60.7911 34.1874 60.8042 34.1144 60.7981 34.0417C60.7921 33.9691 60.7671 33.8992 60.7256 33.8393L53.9798 24.058C53.6923 23.6415 53.3079 23.301 52.8597 23.0658C52.4116 22.8306 51.913 22.7079 51.4068 22.708H46.2193C46.1509 22.708 46.0836 22.7249 46.0232 22.7571C45.9628 22.7893 45.9113 22.8359 45.8732 22.8927C45.8351 22.9495 45.8116 23.0149 45.8048 23.0829C45.7979 23.151 45.8079 23.2197 45.8339 23.283L50.536 34.7893C50.6028 34.952 50.7194 35.0895 50.8691 35.1819C51.0188 35.2743 51.1939 35.317 51.3694 35.3038C51.9319 35.2601 52.4985 35.2122 53.0631 35.158L60.4193 34.4913ZM42.4277 23.2205C42.3643 23.0685 42.2572 22.9386 42.12 22.8474C41.9828 22.7562 41.8216 22.7077 41.6568 22.708H38.3443C38.1796 22.7077 38.0184 22.7562 37.8812 22.8474C37.744 22.9386 37.6369 23.0685 37.5735 23.2205L32.661 35.008C32.6356 35.0697 32.6253 35.1366 32.6311 35.2031C32.6369 35.2695 32.6586 35.3336 32.6943 35.39C32.7301 35.4463 32.7788 35.4933 32.8364 35.5269C32.8941 35.5605 32.959 35.5797 33.0256 35.583C37.6714 35.808 42.3298 35.808 46.9777 35.583C47.0441 35.5794 47.1088 35.5599 47.1661 35.5262C47.2235 35.4925 47.272 35.4455 47.3075 35.3892C47.343 35.3329 47.3645 35.2689 47.3702 35.2026C47.3759 35.1362 47.3656 35.0695 47.3402 35.008L42.4277 23.2205ZM34.1673 23.283C34.1933 23.2197 34.2033 23.151 34.1964 23.0829C34.1896 23.0149 34.1661 22.9495 34.128 22.8927C34.0899 22.8359 34.0384 22.7893 33.978 22.7571C33.9176 22.7249 33.8503 22.708 33.7818 22.708H28.5943C28.0882 22.7079 27.5896 22.8306 27.1414 23.0658C26.6933 23.301 26.3089 23.6415 26.0214 24.058L19.2756 33.8393C19.2341 33.8992 19.2091 33.9691 19.2031 34.0417C19.197 34.1144 19.2101 34.1874 19.2411 34.2534C19.2721 34.3194 19.3199 34.3761 19.3797 34.4179C19.4395 34.4596 19.5092 34.485 19.5818 34.4913L26.9381 35.158C27.5027 35.2122 28.0673 35.2601 28.6318 35.3038C28.8073 35.3173 28.9826 35.2748 29.1323 35.1823C29.2821 35.0898 29.3986 34.9522 29.4652 34.7893L34.1673 23.283Z" fill="url(#paint0_linear_1166_3720)"/>
<defs>
<linearGradient id="paint0_linear_1166_3720" x1="19.1836" y1="42.133" x2="63.6671" y2="45.9226" gradientUnits="userSpaceOnUse">
<stop stop-color="#0E45E6"/>
<stop offset="1" stop-color="#C600CA"/>
</linearGradient>
</defs>
</svg>
