<svg width="80" height="80" viewBox="0 0 80 80" fill="none" xmlns="http://www.w3.org/2000/svg">
<rect width="80" height="80" rx="40" fill="white"/>
<path d="M46.7025 34.6431C48.4275 34.6431 49.8275 36.0431 49.8275 37.7681V49.8199C49.8275 52.4252 48.7925 54.9238 46.9503 56.766C45.1081 58.6082 42.6095 59.6431 40.0042 59.6431C37.399 59.6431 34.9004 58.6082 33.0582 56.766C31.216 54.9238 30.181 52.4252 30.181 49.8199V37.7681C30.181 36.0431 31.5792 34.6431 33.306 34.6431H46.7025ZM21.6953 34.6431L29.5203 34.6396C28.8768 35.415 28.4894 36.3707 28.4114 37.3753L28.3935 37.7681V49.8199C28.3935 51.8431 28.9132 53.7467 29.8221 55.4039C28.5988 55.9381 27.2616 56.1592 25.9314 56.0471C24.6012 55.9351 23.3199 55.4934 22.2032 54.7619C21.0865 54.0305 20.1696 53.0324 19.5353 51.8578C18.901 50.6832 18.5694 49.3691 18.5703 48.0342V37.7681C18.5703 37.3576 18.6512 36.9511 18.8084 36.5718C18.9655 36.1926 19.1959 35.848 19.4862 35.5578C19.7766 35.2676 20.1213 35.0374 20.5007 34.8805C20.88 34.7236 21.2848 34.6429 21.6953 34.6431ZM50.49 34.6396L58.3025 34.6431C60.0275 34.6431 61.4275 36.0431 61.4275 37.7681V48.036C61.428 49.3702 61.0963 50.6836 60.4623 51.8575C59.8284 53.0315 58.912 54.0292 57.7961 54.7604C56.6801 55.4917 55.3996 55.9336 54.0702 56.0462C52.7407 56.1589 51.4041 55.9387 50.181 55.4056L50.281 55.2235C51.0471 53.7717 51.5132 52.136 51.5989 50.4021L51.6132 49.8199V37.7681C51.6132 36.5788 51.1917 35.4896 50.49 34.6396ZM39.9989 20.3574C40.8196 20.3574 41.6324 20.5191 42.3907 20.8332C43.1489 21.1473 43.8379 21.6076 44.4183 22.188C44.9987 22.7684 45.459 23.4574 45.7731 24.2157C46.0872 24.9739 46.2489 25.7867 46.2489 26.6074C46.2489 27.4282 46.0872 28.2409 45.7731 28.9992C45.459 29.7575 44.9987 30.4465 44.4183 31.0268C43.8379 31.6072 43.1489 32.0676 42.3907 32.3817C41.6324 32.6958 40.8196 32.8574 39.9989 32.8574C38.3413 32.8574 36.7516 32.1989 35.5795 31.0268C34.4074 29.8547 33.7489 28.265 33.7489 26.6074C33.7489 24.9498 34.4074 23.3601 35.5795 22.188C36.7516 21.0159 38.3413 20.3574 39.9989 20.3574ZM54.29 22.1431C54.9935 22.1431 55.6901 22.2817 56.34 22.5509C56.99 22.8201 57.5806 23.2148 58.078 23.7122C58.5755 24.2097 58.9701 24.8002 59.2393 25.4502C59.5085 26.1001 59.6471 26.7968 59.6471 27.5003C59.6471 28.2038 59.5085 28.9004 59.2393 29.5504C58.9701 30.2003 58.5755 30.7909 58.078 31.2884C57.5806 31.7858 56.99 32.1804 56.34 32.4496C55.6901 32.7189 54.9935 32.8574 54.29 32.8574C52.8692 32.8574 51.5065 32.293 50.5019 31.2884C49.4972 30.2837 48.9328 28.9211 48.9328 27.5003C48.9328 26.0795 49.4972 24.7169 50.5019 23.7122C51.5065 22.7075 52.8692 22.1431 54.29 22.1431ZM25.7078 22.1431C26.4113 22.1431 27.1079 22.2817 27.7579 22.5509C28.4079 22.8201 28.9984 23.2148 29.4959 23.7122C29.9933 24.2097 30.3879 24.8002 30.6572 25.4502C30.9264 26.1001 31.065 26.7968 31.065 27.5003C31.065 28.2038 30.9264 28.9004 30.6572 29.5504C30.3879 30.2003 29.9933 30.7909 29.4959 31.2884C28.9984 31.7858 28.4079 32.1804 27.7579 32.4496C27.1079 32.7189 26.4113 32.8574 25.7078 32.8574C24.287 32.8574 22.9244 32.293 21.9197 31.2884C20.9151 30.2837 20.3507 28.9211 20.3507 27.5003C20.3507 26.0795 20.9151 24.7169 21.9197 23.7122C22.9244 22.7075 24.287 22.1431 25.7078 22.1431Z" fill="url(#paint0_linear_1166_3742)"/>
<defs>
<linearGradient id="paint0_linear_1166_3742" x1="18.5703" y1="40.0003" x2="64.3488" y2="43.9703" gradientUnits="userSpaceOnUse">
<stop stop-color="#0E45E6"/>
<stop offset="1" stop-color="#C600CA"/>
</linearGradient>
</defs>
</svg>
