<svg width="88" height="41" viewBox="0 0 88 41" fill="none" xmlns="http://www.w3.org/2000/svg">
<g clip-path="url(#clip0_2199_945)">
<path d="M44.8945 17.6774V3.87091H47.0671L52.6743 11.8999L54.0375 14.0665L53.8937 11.4486V3.85498H56.2313V17.6615H54.1014L48.3291 9.51034L47.0671 7.54556L47.2322 10.0891V17.6774H44.8945Z" fill="white"/>
<path d="M58.2539 12.665C58.2539 9.51073 60.2188 7.42383 63.0464 7.42383C66.0709 7.42383 67.743 9.42577 67.743 12.203C67.7444 12.5427 67.7177 12.8819 67.6631 13.2172H60.4691C60.5916 15.0121 61.6459 15.9785 63.2381 15.9785C65.0006 15.9785 65.7834 15.0705 66.1561 14.2262L67.5832 15.713C67.1056 16.4188 66.4529 16.9892 65.6887 17.3689C64.9244 17.7485 64.0747 17.9245 63.2221 17.8796C60.2188 17.8849 58.2539 15.798 58.2539 12.665ZM60.4904 11.7357H65.6609C65.4958 10.1426 64.5959 9.2824 63.0517 9.2824C61.6246 9.2824 60.7034 10.0895 60.4904 11.7357Z" fill="white"/>
<path d="M67.9141 17.6777L71.4711 12.6437L68.1217 7.63086H70.7842L72.2326 9.89831L73.1645 11.4914L74.0164 9.96203L75.5074 7.63086H78.1699L74.6714 12.6012L78.0634 17.6777H75.4009L73.9153 15.3466L72.9621 13.7535L72.0302 15.32L70.5393 17.6724L67.9141 17.6777Z" fill="white"/>
<path d="M78.4629 12.6435C78.4629 9.40429 80.0604 7.40234 82.4566 7.40234C84.4641 7.40234 85.3534 8.74582 85.6835 10.3123V7.63068H87.9999V17.6776H85.6835V14.9959C85.3534 16.5412 84.5014 17.8847 82.4885 17.8847C80.0337 17.8847 78.4629 15.8827 78.4629 12.6435ZM83.3672 16.0049C85.0019 16.0049 85.6835 14.911 85.6835 13.2648V12.0222C85.6835 10.3761 85.0019 9.28215 83.3672 9.28215C81.8762 9.28215 80.7579 10.3761 80.7579 12.6435C80.7579 14.911 81.8762 16.0049 83.3672 16.0049Z" fill="white"/>
<path d="M44.8945 36.4972V22.6907H47.2322V28.4098H53.8937V22.6748H56.2313V36.4813H53.8937V30.4755H47.2322V36.4972H44.8945Z" fill="white"/>
<path d="M58.8789 33.4539V26.4497H61.1953V32.7423C61.1953 33.9796 61.6053 34.8239 63.1602 34.8239C64.8535 34.8239 65.4339 33.73 65.4339 32.0838V26.4497H67.7716V36.4966H65.4339V33.7512C65.0612 35.3443 64.0281 36.7037 62.0206 36.7037C60.0131 36.7037 58.8789 35.5248 58.8789 33.4539Z" fill="white"/>
<path d="M70.209 36.4974V22.6909H72.5253V29.1534C72.8608 27.5869 73.7501 26.2434 75.7522 26.2434C78.2177 26.2434 79.7886 28.2454 79.7886 31.4846C79.7886 34.7238 78.1911 36.7258 75.715 36.7258C73.7075 36.7258 72.8608 35.3823 72.52 33.837V36.4921L70.209 36.4974ZM74.8417 34.846C76.3114 34.846 77.4083 33.7521 77.4083 31.4846C77.4083 29.2171 76.3114 28.1445 74.8417 28.1445C73.2123 28.1445 72.5253 29.2384 72.5253 30.8845V32.1431C72.5253 33.7733 73.2123 34.846 74.8417 34.846Z" fill="white"/>
<path d="M81.2383 36.4967V33.5654H83.9008V36.4967H81.2383Z" fill="white"/>
<path d="M20.501 0L0 20.4761L3.86058 24.3207L20.5064 7.69447L37.2586 24.3738L41.1139 20.5239L20.501 0Z" fill="white"/>
<path d="M12.1829 8.31703L8.32617 12.1685L28.9368 32.6933L32.7935 28.8418L12.1829 8.31703Z" fill="white"/>
<path d="M12.2278 24.9708L8.37109 28.8223L20.6056 41.0058L24.4623 37.1544L12.2278 24.9708Z" fill="white"/>
<path d="M28.8801 8.3407L8.38086 28.8188L12.2437 32.6642L32.7429 12.1861L28.8801 8.3407Z" fill="white"/>
<path d="M28.9316 24.995L16.7539 37.1602L20.6167 41.0055L32.7944 28.8404L28.9316 24.995Z" fill="white"/>
</g>
<defs>
<clipPath id="clip0_2199_945">
<rect width="88" height="41" fill="white"/>
</clipPath>
</defs>
</svg>
