<svg width="40" height="40" viewBox="0 0 40 40" fill="none" xmlns="http://www.w3.org/2000/svg">
<path d="M8.33398 8.08337V31.9167C7.86176 31.4445 7.41732 30.9445 7.00065 30.4167C6.58398 29.8889 6.1951 29.3473 5.83398 28.7917V11.2084C6.1951 10.6528 6.58398 10.1112 7.00065 9.58337C7.41732 9.0556 7.86176 8.5556 8.33398 8.08337ZM15.0007 4.08337V35.9167C14.4173 35.7223 13.8479 35.5073 13.2923 35.2717C12.7368 35.0362 12.1951 34.765 11.6673 34.4584V5.54171C12.1951 5.23615 12.7368 4.96504 13.2923 4.72837C13.8479 4.49171 14.4173 4.27671 15.0007 4.08337ZM26.6673 35.2917V4.70837C29.6118 6.01393 32.0145 8.02782 33.8757 10.75C35.7368 13.4723 36.6673 16.5556 36.6673 20C36.6673 23.4445 35.7368 26.5278 33.8757 29.25C32.0145 31.9723 29.6118 33.9861 26.6673 35.2917ZM20.0007 36.6667C19.7229 36.6667 19.4451 36.66 19.1673 36.6467C18.8895 36.6334 18.6118 36.6123 18.334 36.5834V3.41671C18.6118 3.38893 18.8895 3.36837 19.1673 3.35504C19.4451 3.34171 19.7229 3.33449 20.0007 3.33337C20.5562 3.33337 21.1118 3.36115 21.6673 3.41671C22.2229 3.47226 22.7784 3.5556 23.334 3.66671V36.3334C22.7784 36.4445 22.2229 36.5278 21.6673 36.5834C21.1118 36.6389 20.5562 36.6667 20.0007 36.6667Z" fill="#141414"/>
</svg>
