<svg width="40" height="40" viewBox="0 0 40 40" fill="none" xmlns="http://www.w3.org/2000/svg">
<path d="M16.6673 28.3333H31.6673V18.3333H16.6673V28.3333ZM6.66732 33.3333C5.75065 33.3333 4.96621 33.0072 4.31398 32.355C3.66176 31.7027 3.3351 30.9177 3.33398 30V9.99996C3.33398 9.08329 3.66065 8.29885 4.31398 7.64663C4.96732 6.9944 5.75176 6.66774 6.66732 6.66663H33.334C34.2507 6.66663 35.0357 6.99329 35.689 7.64663C36.3423 8.29996 36.6684 9.0844 36.6673 9.99996V30C36.6673 30.9166 36.3412 31.7016 35.689 32.355C35.0368 33.0083 34.2518 33.3344 33.334 33.3333H6.66732Z" fill="#141414"/>
</svg>
