<svg width="36" height="36" viewBox="0 0 36 36" fill="none" xmlns="http://www.w3.org/2000/svg">
<path d="M31.1667 4.5C32.0507 4.5 32.8986 4.85119 33.5237 5.47631C34.1488 6.10143 34.5 6.94928 34.5 7.83333V31.1667C34.5 32.0507 34.1488 32.8986 33.5237 33.5237C32.8986 34.1488 32.0507 34.5 31.1667 34.5H7.83333C6.94928 34.5 6.10143 34.1488 5.47631 33.5237C4.85119 32.8986 4.5 32.0507 4.5 31.1667V7.83333C4.5 6.94928 4.85119 6.10143 5.47631 5.47631C6.10143 4.85119 6.94928 4.5 7.83333 4.5H31.1667ZM30.3333 30.3333V21.5C30.3333 20.059 29.7609 18.677 28.7419 17.6581C27.723 16.6391 26.341 16.0667 24.9 16.0667C23.4833 16.0667 21.8333 16.9333 21.0333 18.2333V16.3833H16.3833V30.3333H21.0333V22.1167C21.0333 20.8333 22.0667 19.7833 23.35 19.7833C23.9688 19.7833 24.5623 20.0292 24.9999 20.4668C25.4375 20.9043 25.6833 21.4978 25.6833 22.1167V30.3333H30.3333ZM10.9667 13.7667C11.7093 13.7667 12.4215 13.4717 12.9466 12.9466C13.4717 12.4215 13.7667 11.7093 13.7667 10.9667C13.7667 9.41667 12.5167 8.15 10.9667 8.15C10.2196 8.15 9.50321 8.44675 8.97498 8.97498C8.44675 9.50321 8.15 10.2196 8.15 10.9667C8.15 12.5167 9.41667 13.7667 10.9667 13.7667ZM13.2833 30.3333V16.3833H8.66667V30.3333H13.2833Z" fill="white"/>
</svg>
