<svg width="30" height="30" viewBox="0 0 30 30" fill="none" xmlns="http://www.w3.org/2000/svg">
<path d="M16.542 0.00184559C17.6366 -0.00235474 18.7312 0.00864643 19.8255 0.0348457L20.1165 0.0453457C20.4525 0.0573457 20.784 0.0723456 21.1845 0.0903456C22.7805 0.165346 23.8695 0.417346 24.825 0.787846C25.815 1.16885 26.649 1.68485 27.483 2.51885C28.2456 3.26825 28.8358 4.17477 29.2125 5.17535C29.583 6.13085 29.835 7.22134 29.91 8.81734C29.928 9.21634 29.943 9.54935 29.955 9.88535L29.964 10.1763C29.9907 11.2701 30.0022 12.3642 29.9985 13.4583L30 14.5773V16.5423C30.0037 17.637 29.9922 18.7316 29.9655 19.8258L29.9565 20.1168C29.9445 20.4528 29.9295 20.7843 29.9115 21.1848C29.8365 22.7808 29.5815 23.8698 29.2125 24.8253C28.837 25.827 28.2467 26.7342 27.483 27.4833C26.733 28.2458 25.826 28.836 24.825 29.2128C23.8695 29.5833 22.7805 29.8353 21.1845 29.9103C20.784 29.9283 20.4525 29.9433 20.1165 29.9553L19.8255 29.9643C18.7312 29.991 17.6366 30.0025 16.542 29.9988L15.423 30.0003H13.4595C12.3649 30.004 11.2703 29.9925 10.176 29.9658L9.88501 29.9568C9.52893 29.9439 9.17292 29.9289 8.81701 29.9118C7.22101 29.8368 6.13201 29.5818 5.17501 29.2128C4.17404 28.8369 3.26737 28.2466 2.51851 27.4833C1.75508 26.7338 1.16435 25.8267 0.787511 24.8253C0.417011 23.8698 0.165011 22.7808 0.0900109 21.1848C0.0733053 20.8289 0.0583052 20.4729 0.045011 20.1168L0.0375112 19.8258C0.00985653 18.7316 -0.00264481 17.637 1.10089e-05 16.5423V13.4583C-0.00417544 12.3642 0.00682573 11.2701 0.0330111 10.1763L0.0435111 9.88535C0.0555111 9.54935 0.070511 9.21634 0.088511 8.81734C0.163511 7.21984 0.415511 6.13235 0.786011 5.17535C1.16307 4.17428 1.75496 3.26801 2.52001 2.52035C3.26835 1.75647 4.17445 1.1652 5.17501 0.787846C6.13201 0.417346 7.21951 0.165346 8.81701 0.0903456L9.88501 0.0453457L10.176 0.0378458C11.2698 0.0102051 12.3639 -0.00229628 13.458 0.000345702L16.542 0.00184559ZM15 7.50185C14.0063 7.48779 13.0196 7.67138 12.0975 8.04195C11.1753 8.41251 10.336 8.96266 9.62828 9.66043C8.92058 10.3582 8.35861 11.1897 7.97504 12.1065C7.59147 13.0233 7.39395 14.0073 7.39395 15.0011C7.39395 15.9949 7.59147 16.9789 7.97504 17.8957C8.35861 18.8125 8.92058 19.644 9.62828 20.3418C10.336 21.0395 11.1753 21.5897 12.0975 21.9602C13.0196 22.3308 14.0063 22.5144 15 22.5003C16.9891 22.5003 18.8968 21.7102 20.3033 20.3036C21.7098 18.8971 22.5 16.9895 22.5 15.0003C22.5 13.0112 21.7098 11.1036 20.3033 9.69704C18.8968 8.29052 16.9891 7.50185 15 7.50185ZM15 10.5018C15.5978 10.4908 16.1917 10.599 16.7472 10.8202C17.3027 11.0413 17.8085 11.3709 18.2352 11.7897C18.6618 12.2085 19.0008 12.7081 19.2322 13.2594C19.4636 13.8106 19.5828 14.4025 19.5829 15.0003C19.583 15.5982 19.464 16.1901 19.2328 16.7414C19.0015 17.2928 18.6628 17.7925 18.2362 18.2115C17.8097 18.6304 17.304 18.9602 16.7486 19.1815C16.1932 19.4028 15.5993 19.5112 15.0015 19.5003C13.808 19.5003 12.6634 19.0262 11.8195 18.1823C10.9756 17.3384 10.5015 16.1938 10.5015 15.0003C10.5015 13.8069 10.9756 12.6623 11.8195 11.8184C12.6634 10.9745 13.808 10.5003 15.0015 10.5003L15 10.5018ZM22.875 5.25185C22.3911 5.27121 21.9335 5.47707 21.5979 5.8263C21.2624 6.17553 21.075 6.64105 21.075 7.12535C21.075 7.60964 21.2624 8.07516 21.5979 8.42439C21.9335 8.77362 22.3911 8.97948 22.875 8.99885C23.3723 8.99885 23.8492 8.8013 24.2008 8.44967C24.5525 8.09804 24.75 7.62113 24.75 7.12385C24.75 6.62656 24.5525 6.14965 24.2008 5.79802C23.8492 5.44639 23.3723 5.24885 22.875 5.24885V5.25185Z" fill="white"/>
</svg>
