<svg width="266" height="255" viewBox="0 0 266 255" fill="none" xmlns="http://www.w3.org/2000/svg">
<path d="M32.5189 182.367L30.606 183.374L27.5234 177.455L24.4408 179.083L27.3032 184.519L25.4454 185.498L22.5829 180.062L19.5278 181.677L22.7206 187.761L20.8077 188.768L16.459 180.49L28.3078 174.24L32.5189 182.367Z" fill="white"/>
<path d="M29.9868 202.814L27.8812 199.765L33.8813 188.299L24.4683 194.811L23.0922 192.852L34.1015 185.223L36.3584 188.506L30.6749 199.42L39.62 193.225L40.9961 195.184L29.9868 202.814Z" fill="white"/>
<path d="M33.2208 206.829L43.1567 197.833L47.5467 202.717C47.9884 203.199 48.3508 203.749 48.6201 204.345C48.8567 204.861 48.9877 205.419 49.0054 205.987C49.0203 206.517 48.9217 207.044 48.7164 207.532C48.4878 208.058 48.15 208.528 47.7256 208.912C47.3576 209.242 46.9335 209.504 46.4733 209.685C46.0337 209.847 45.5634 209.908 45.0971 209.864C44.6174 209.838 44.1484 209.711 43.7209 209.491C43.2547 209.251 42.8352 208.928 42.4824 208.539C42.7908 208.933 42.9602 209.418 42.9641 209.919C42.9469 210.54 42.8017 211.151 42.5374 211.713L40.886 215.452L39.0695 213.423L40.8035 209.712C40.9091 209.484 40.9832 209.243 41.0237 208.995C41.0648 208.79 41.0648 208.579 41.0237 208.374C40.9774 208.154 40.8936 207.944 40.7759 207.753C40.6175 207.508 40.4379 207.277 40.2392 207.063L38.6291 205.27L34.8722 208.677L33.2208 206.829ZM42.7301 206.663C42.9656 206.935 43.2391 207.172 43.542 207.367C43.8004 207.52 44.0852 207.623 44.3815 207.67C44.6539 207.71 44.9316 207.686 45.1934 207.601C45.4808 207.509 45.744 207.353 45.9641 207.146C46.1831 206.948 46.3608 206.709 46.487 206.442C46.6015 206.197 46.649 205.926 46.6247 205.656C46.6034 205.362 46.5238 205.076 46.3907 204.814C46.2221 204.487 46.0091 204.186 45.7577 203.917L43.2255 201.158L40.1979 203.917L42.7301 206.663Z" fill="white"/>
<path d="M45.909 220.018L44.1063 218.335L53.2303 208.512L55.0468 210.195L45.909 220.018Z" fill="white"/>
<path d="M55.2257 219.37C54.7943 219.903 54.4463 220.499 54.1936 221.136C53.9863 221.668 53.8835 222.235 53.8909 222.806C53.9044 223.331 54.0411 223.847 54.2899 224.31C54.5744 224.806 54.9587 225.239 55.4184 225.579C56.099 226.097 56.9477 226.343 57.7992 226.269C58.7532 226.129 59.6365 225.684 60.3176 224.999L62.258 226.503C61.6714 227.068 60.9975 227.534 60.2625 227.883C59.6102 228.215 58.8998 228.416 58.1707 228.476C57.4558 228.543 56.7347 228.463 56.0514 228.242C55.3193 228.005 54.6345 227.641 54.0285 227.165C53.5421 226.802 53.111 226.37 52.7486 225.882C52.4015 225.437 52.1189 224.945 51.9092 224.42C51.7174 223.9 51.5926 223.357 51.5376 222.806C51.4971 222.239 51.5248 221.669 51.6202 221.109C51.7328 220.516 51.9225 219.941 52.1844 219.398C52.4609 218.794 52.8074 218.224 53.2165 217.701C53.6242 217.193 54.0857 216.73 54.5927 216.321C55.0551 215.937 55.5636 215.613 56.1065 215.355C56.6161 215.109 57.1583 214.937 57.7166 214.845C58.2645 214.769 58.8201 214.769 59.368 214.845C59.9322 214.912 60.4838 215.061 61.0057 215.286C61.5616 215.52 62.0844 215.826 62.5607 216.197C63.1728 216.663 63.6991 217.233 64.1158 217.88C64.4957 218.488 64.7572 219.162 64.8865 219.867C65.0235 220.592 65.0235 221.336 64.8865 222.061C64.7246 222.865 64.4367 223.638 64.0332 224.351L62.0928 222.861C62.5764 222.027 62.7791 221.06 62.6708 220.102C62.5108 219.231 62.0167 218.458 61.2947 217.949C60.8489 217.589 60.3334 217.326 59.7809 217.177C59.2691 217.059 58.7375 217.059 58.2258 217.177C57.6755 217.323 57.1574 217.571 56.6982 217.908C56.1366 218.318 55.6401 218.811 55.2257 219.37Z" fill="white"/>
<path d="M73.171 239.306L71.0517 238.065L73.804 233.222L68.2993 229.993L65.547 234.836L63.4139 233.608L70.1434 221.991L72.2627 223.233L69.5104 228.103L75.0151 231.332L77.7674 226.461L79.8867 227.689L73.171 239.306Z" fill="white"/>
<path d="M79.5152 242.272L77.2858 241.238L82.9556 229.027L85.185 230.076L79.5152 242.272Z" fill="white"/>
<path d="M95.0383 248.343L91.5566 247.088L89.7813 234.27L85.9143 245.06L83.6711 244.204L88.1987 231.58L91.9419 232.96L93.6484 245.156L97.3228 234.891L99.5659 235.705L95.0383 248.343Z" fill="white"/>
<path d="M103.805 243.721C103.648 244.394 103.588 245.086 103.626 245.777C103.657 246.347 103.802 246.905 104.052 247.419C104.28 247.882 104.615 248.284 105.029 248.591C105.484 248.921 106.006 249.147 106.557 249.254C107.077 249.362 107.611 249.39 108.139 249.336C108.621 249.271 109.086 249.122 109.516 248.895C109.927 248.679 110.289 248.378 110.575 248.012C110.875 247.639 111.09 247.206 111.208 246.742L107.08 245.873L107.465 244.024L113.851 245.404L112.364 252.427L110.094 251.916L110.837 248.439C110.561 248.947 110.213 249.412 109.805 249.819C109.43 250.208 108.993 250.53 108.511 250.771C108.033 251.016 107.516 251.175 106.983 251.24C106.429 251.313 105.865 251.29 105.318 251.171C104.317 250.958 103.405 250.443 102.704 249.695C102.357 249.315 102.065 248.887 101.837 248.426C101.595 247.941 101.419 247.426 101.314 246.894C101.19 246.314 101.13 245.722 101.135 245.128C101.148 244.474 101.222 243.823 101.355 243.183C101.495 242.533 101.702 241.899 101.974 241.293C102.223 240.743 102.542 240.228 102.924 239.761C103.276 239.316 103.688 238.921 104.149 238.589C104.599 238.275 105.09 238.025 105.607 237.844C106.145 237.661 106.705 237.554 107.272 237.526C107.872 237.491 108.474 237.537 109.062 237.664C109.794 237.813 110.496 238.084 111.14 238.464C111.739 238.828 112.27 239.295 112.708 239.844C113.15 240.388 113.486 241.011 113.699 241.679C113.933 242.386 114.04 243.128 114.016 243.873L111.607 243.362C111.604 242.924 111.525 242.49 111.373 242.079C111.249 241.697 111.047 241.345 110.782 241.044C110.518 240.737 110.201 240.48 109.846 240.286C109.461 240.076 109.049 239.923 108.621 239.83C108.063 239.713 107.487 239.713 106.928 239.83C106.424 239.94 105.953 240.167 105.552 240.492C105.105 240.875 104.74 241.344 104.479 241.872C104.169 242.454 103.942 243.076 103.805 243.721Z" fill="white"/>
<path d="M133.791 240.59V242.77L127.103 242.535L126.993 246.026L133.117 246.233L132.979 248.344L126.842 248.137L126.732 251.6L133.612 251.834V254L124.282 253.683L124.75 240.272L133.791 240.59Z" fill="white"/>
<path d="M144.911 246.535L150.209 252.965L147.319 253.199L143.356 248.343L140.342 253.862L137.59 254.096L141.718 246.922L136.833 240.699L139.709 240.465L143.301 245.183L146.053 239.941L148.805 239.706L144.911 246.535Z" fill="white"/>
<path d="M151.984 239.113L158.122 237.816C158.573 237.713 159.035 237.662 159.498 237.664C159.925 237.676 160.349 237.731 160.764 237.83C161.15 237.925 161.52 238.074 161.865 238.271C162.204 238.461 162.514 238.698 162.787 238.975C163.058 239.257 163.285 239.578 163.462 239.927C163.66 240.288 163.8 240.68 163.874 241.086C163.967 241.488 164 241.902 163.971 242.314C163.945 242.706 163.862 243.092 163.723 243.459C163.586 243.823 163.401 244.166 163.173 244.48C162.937 244.801 162.659 245.089 162.347 245.335C162.013 245.601 161.648 245.823 161.26 245.997C160.819 246.196 160.357 246.344 159.883 246.439L156.154 247.225L157.117 251.737L154.709 252.247L151.984 239.113ZM159.347 244.369C159.714 244.3 160.068 244.169 160.393 243.983C160.671 243.834 160.915 243.627 161.108 243.376C161.298 243.14 161.425 242.86 161.48 242.562C161.548 242.244 161.548 241.915 161.48 241.596C161.422 241.278 161.295 240.977 161.108 240.713C160.933 240.47 160.708 240.268 160.448 240.12C160.168 239.98 159.865 239.891 159.553 239.858C159.185 239.82 158.813 239.844 158.452 239.927L154.847 240.699L155.782 245.128L159.347 244.369Z" fill="white"/>
<path d="M174.664 232.96L175.365 235.016L169.021 237.154L170.136 240.465L175.943 238.506L176.618 240.507L170.81 242.466L171.911 245.75L178.407 243.556L179.109 245.625L170.26 248.606L166.007 235.926L174.664 232.96Z" fill="white"/>
<path d="M183.416 243.929L177.691 231.787L183.622 229.028C184.206 228.737 184.834 228.546 185.48 228.462C186.046 228.386 186.622 228.423 187.173 228.573C187.679 228.714 188.148 228.964 188.549 229.304C188.98 229.682 189.318 230.154 189.54 230.684C189.756 231.114 189.887 231.583 189.925 232.063C189.963 232.533 189.892 233.005 189.719 233.443C189.553 233.876 189.3 234.271 188.976 234.602C188.608 234.979 188.18 235.292 187.71 235.526C188.19 235.354 188.716 235.354 189.196 235.526C189.788 235.717 190.332 236.032 190.792 236.451L193.889 239.114L191.425 240.272L188.329 237.623C188.138 237.464 187.93 237.325 187.71 237.21C187.524 237.104 187.317 237.042 187.104 237.03C186.882 237.007 186.657 237.031 186.444 237.099C186.169 237.175 185.901 237.277 185.645 237.403L183.471 238.437L185.645 242.825L183.416 243.929ZM186.003 234.754C186.325 234.6 186.626 234.405 186.898 234.174C187.128 233.975 187.315 233.731 187.448 233.457C187.558 233.205 187.615 232.932 187.613 232.657C187.599 232.355 187.524 232.059 187.393 231.787C187.269 231.519 187.091 231.28 186.87 231.084C186.668 230.907 186.428 230.779 186.168 230.711C185.877 230.656 185.579 230.656 185.288 230.711C184.928 230.774 184.58 230.89 184.256 231.056L180.829 232.67L182.577 236.368L186.003 234.754Z" fill="white"/>
<path d="M199.696 235.54L197.563 236.781L190.806 225.206L192.925 223.95L199.696 235.54Z" fill="white"/>
<path d="M203.288 217.038L204.526 218.832L199.022 222.653L201.003 225.523L206.04 222.019L207.251 223.743L202.297 227.262L204.265 230.104L209.894 226.172L211.132 227.965L203.481 233.291L195.843 222.253L203.288 217.038Z" fill="white"/>
<path d="M223.807 217.065L221.054 219.521L208.972 214.955L216.568 223.522L214.793 225.109L205.903 215.079L208.861 212.43L220.366 216.762L213.141 208.622L214.917 207.035L223.807 217.065Z" fill="white"/>
<path d="M223.972 207.132C224.485 207.591 225.065 207.967 225.692 208.25C226.205 208.495 226.762 208.631 227.33 208.65C227.854 208.665 228.373 208.552 228.843 208.319C229.371 208.071 229.84 207.713 230.22 207.27C230.825 206.62 231.156 205.76 231.142 204.87C231.063 203.904 230.666 202.991 230.013 202.276L231.623 200.413C232.163 201.029 232.6 201.728 232.917 202.483C233.207 203.16 233.37 203.885 233.399 204.621C233.42 205.336 233.304 206.048 233.054 206.719C232.773 207.438 232.373 208.105 231.871 208.692C231.468 209.156 231.005 209.564 230.495 209.906C230.032 210.226 229.527 210.481 228.995 210.664C228.471 210.842 227.924 210.94 227.371 210.954C226.806 210.969 226.241 210.909 225.692 210.775C225.103 210.637 224.534 210.424 223.999 210.14C222.841 209.501 221.829 208.627 221.027 207.574C220.661 207.091 220.36 206.563 220.132 206.001C219.918 205.475 219.775 204.923 219.706 204.359C219.623 203.811 219.623 203.252 219.706 202.704C219.804 202.145 219.975 201.603 220.215 201.089C220.487 200.549 220.824 200.043 221.219 199.586C221.712 198.99 222.309 198.489 222.981 198.109C223.606 197.759 224.293 197.534 225.004 197.447C225.732 197.368 226.468 197.419 227.178 197.599C227.972 197.807 228.729 198.138 229.421 198.578L227.825 200.441C227.012 199.904 226.044 199.652 225.073 199.724C224.193 199.85 223.396 200.31 222.843 201.007C222.465 201.435 222.179 201.938 222.004 202.483C221.855 202.984 221.822 203.512 221.907 204.028C222.015 204.591 222.235 205.126 222.554 205.601C222.946 206.181 223.424 206.697 223.972 207.132Z" fill="white"/>
<path d="M232.463 184.754L234.265 185.954L230.564 191.473L233.454 193.418L236.853 188.3L238.614 189.472L235.201 194.591L238.077 196.509L241.889 190.797L243.692 191.997L238.518 199.779L227.385 192.315L232.463 184.754Z" fill="white"/>
<path d="M236.357 177.027C236.702 176.35 237.138 175.724 237.651 175.164C238.094 174.697 238.622 174.318 239.206 174.047C239.751 173.802 240.343 173.684 240.94 173.702C241.576 173.735 242.196 173.91 242.756 174.212L241.669 176.337C241.378 176.178 241.052 176.093 240.72 176.089C240.396 176.093 240.076 176.169 239.784 176.31C239.459 176.478 239.165 176.702 238.917 176.972C238.636 177.291 238.396 177.643 238.201 178.02C238.034 178.356 237.9 178.707 237.802 179.069C237.709 179.41 237.667 179.764 237.678 180.117C237.679 180.43 237.755 180.737 237.899 181.014C238.05 181.287 238.28 181.509 238.559 181.649C238.784 181.777 239.046 181.826 239.302 181.787C239.563 181.73 239.805 181.606 240.004 181.428C240.274 181.197 240.519 180.938 240.733 180.656L241.559 179.538L241.917 179.028C242.137 178.715 242.371 178.397 242.619 178.076C242.862 177.752 243.124 177.444 243.403 177.151C243.672 176.876 243.962 176.622 244.27 176.392C244.575 176.174 244.915 176.011 245.275 175.909C245.645 175.8 246.034 175.767 246.417 175.813C246.87 175.87 247.309 176.01 247.711 176.227C248.283 176.509 248.779 176.925 249.156 177.441C249.498 177.928 249.715 178.492 249.789 179.083C249.868 179.747 249.826 180.42 249.665 181.069C249.478 181.836 249.201 182.577 248.839 183.277C248.482 184.034 248.019 184.735 247.463 185.36C247.011 185.88 246.458 186.302 245.839 186.602C245.283 186.874 244.668 187.002 244.05 186.975C243.392 186.946 242.748 186.772 242.165 186.464L243.252 184.339C243.565 184.507 243.915 184.592 244.27 184.588C244.617 184.582 244.957 184.492 245.261 184.326C245.613 184.127 245.93 183.871 246.197 183.567C246.513 183.194 246.785 182.787 247.009 182.353C247.204 181.964 247.361 181.558 247.477 181.138C247.583 180.771 247.634 180.39 247.628 180.007C247.622 179.673 247.532 179.346 247.367 179.055C247.203 178.765 246.953 178.534 246.651 178.393C246.406 178.25 246.121 178.192 245.839 178.227C245.577 178.277 245.331 178.39 245.123 178.558C244.861 178.783 244.622 179.033 244.408 179.303C244.174 179.607 243.926 179.952 243.651 180.338L243.183 180.987L242.674 181.704C242.495 181.939 242.316 182.187 242.123 182.408C241.931 182.629 241.724 182.863 241.532 183.07C241.328 183.273 241.107 183.457 240.871 183.622C240.656 183.787 240.42 183.921 240.169 184.022C239.919 184.131 239.655 184.205 239.385 184.243C239.102 184.29 238.814 184.29 238.532 184.243C238.201 184.178 237.881 184.066 237.582 183.912C237.198 183.718 236.849 183.462 236.55 183.153C236.278 182.87 236.055 182.543 235.889 182.187C235.722 181.829 235.61 181.448 235.559 181.056C235.511 180.639 235.511 180.217 235.559 179.8C235.601 179.33 235.698 178.867 235.848 178.42C235.978 177.942 236.149 177.476 236.357 177.027Z" fill="white"/>
<path d="M43.8723 37.1553L45.4136 38.6315L40.8448 43.5294L43.3907 45.9163L47.5192 41.4323L49.0605 42.812L44.932 47.3098L47.4917 49.669L52.1844 44.647L53.767 46.137L47.3953 52.9527L37.6245 43.7916L43.8723 37.1553Z" fill="white"/>
<path d="M48.6063 32.7676L55.9826 41.2388L60.868 36.9618L62.2442 38.6036L55.501 44.4949L46.7898 34.3818L48.6063 32.7676Z" fill="white"/>
<path d="M63.9644 20.8467L65.2167 22.6127L59.7121 26.4896L61.7213 29.3317L66.7168 25.786L67.9416 27.5106L62.9323 31.0563L64.9277 33.8157L70.5288 29.8422L71.8361 31.7324L64.2259 37.127L56.4918 26.1723L63.9644 20.8467Z" fill="white"/>
<path d="M77.9876 12.79L80.3959 26.78L77.2857 28.4909L66.8819 18.902L69.1801 17.6327L77.9876 26.0074L75.6894 14.0318L77.9876 12.79Z" fill="white"/>
<path d="M84.3455 24.5858L83.7262 10.3475L87.0015 8.96777L96.4558 19.5913L94.0337 20.5847L91.8594 18.0599L86.5198 20.2812L86.6987 23.6062L84.3455 24.5858ZM90.4281 16.4043L85.9694 11.2305L86.3822 18.0599L90.4281 16.4043Z" fill="white"/>
<path d="M104.204 5.7397L100.075 6.94002L103.172 17.743L100.805 18.4328L97.7081 7.62987L93.5796 8.83019L92.9879 6.73307L103.722 3.64258L104.204 5.7397Z" fill="white"/>
<path d="M111.979 15.6866L109.571 16.1695L106.915 3.0073L109.337 2.52441L111.979 15.6866Z" fill="white"/>
<path d="M126.759 13.7L123.085 14.1139L115.874 3.37991L117.126 14.7761L114.759 15.0244L113.286 1.69669L117.236 1.25519L124.117 11.4511L122.92 0.620539L125.232 0.358398L126.759 13.7Z" fill="white"/>
<path d="M131.933 6.89843C131.902 7.59316 131.962 8.28899 132.112 8.96796C132.249 9.52026 132.492 10.0405 132.828 10.4994C133.141 10.9163 133.552 11.2482 134.025 11.4652C134.526 11.7098 135.078 11.8327 135.635 11.8239C136.166 11.8421 136.696 11.7722 137.204 11.617C137.663 11.4632 138.092 11.2297 138.47 10.9271C138.832 10.6391 139.127 10.2768 139.337 9.86476C139.572 9.44167 139.704 8.96896 139.723 8.48507L135.594 8.40229V6.49832L142.117 6.63629L141.966 13.8107H139.64L139.723 10.2511C139.544 10.7945 139.299 11.3135 138.993 11.7963C138.689 12.2457 138.317 12.6458 137.892 12.9828C137.473 13.2984 137.009 13.5495 136.516 13.7279C135.763 13.9735 134.962 14.0365 134.18 13.9118C133.398 13.7871 132.656 13.4782 132.016 13.0104C131.607 12.702 131.242 12.3401 130.929 11.9343C130.605 11.5081 130.332 11.045 130.117 10.5546C129.889 10.0047 129.722 9.43082 129.622 8.84379C129.502 8.20249 129.446 7.55079 129.456 6.89843C129.477 6.23818 129.565 5.58175 129.718 4.93928C129.856 4.3488 130.068 3.77848 130.351 3.24227C130.616 2.73546 130.955 2.27059 131.355 1.86258C131.736 1.46226 132.172 1.11847 132.649 0.841616C133.139 0.552212 133.667 0.333889 134.218 0.193164C134.803 0.050548 135.405 -0.0143924 136.007 8.50693e-06C136.754 0.00921922 137.493 0.144482 138.195 0.400117C138.847 0.636967 139.453 0.987247 139.984 1.43488C140.537 1.88428 141.004 2.43137 141.36 3.04911C141.719 3.70101 141.961 4.41073 142.076 5.14623H139.613C139.528 4.71306 139.37 4.2977 139.145 3.91831C138.941 3.57709 138.68 3.27369 138.374 3.02152C138.055 2.77425 137.697 2.58298 137.314 2.45585C136.898 2.31465 136.46 2.24469 136.021 2.24889C135.453 2.22915 134.887 2.32296 134.356 2.52483C133.868 2.72477 133.438 3.04232 133.103 3.44922C132.736 3.88673 132.46 4.39333 132.291 4.93928C132.085 5.57337 131.965 6.23229 131.933 6.89843Z" fill="white"/>
<path d="M159.636 2.98027C160.231 3.09179 160.806 3.29174 161.342 3.57354C161.811 3.81565 162.231 4.14315 162.581 4.53931C162.897 4.90139 163.128 5.33064 163.255 5.79483C163.357 6.24901 163.357 6.72034 163.255 7.17451C163.182 7.55698 163.037 7.9221 162.829 8.25067C162.632 8.55732 162.38 8.82412 162.085 9.03709C161.794 9.2568 161.462 9.41626 161.108 9.50618C160.742 9.61229 160.36 9.64971 159.98 9.61656C160.419 9.7436 160.833 9.94418 161.205 10.2098C161.552 10.4547 161.855 10.7581 162.099 11.1066C162.322 11.4522 162.481 11.8355 162.567 12.238C162.649 12.6617 162.649 13.0974 162.567 13.5211C162.473 14.0264 162.256 14.5005 161.934 14.9007C161.617 15.2973 161.212 15.6138 160.75 15.8251C160.245 16.0675 159.699 16.2126 159.14 16.2528C158.491 16.3053 157.837 16.2634 157.2 16.1287L150.484 14.749L153.14 1.60059L159.636 2.98027ZM157.406 14.0177C158.043 14.2137 158.724 14.2137 159.361 14.0177C159.602 13.9033 159.811 13.7294 159.967 13.5123C160.124 13.2952 160.223 13.0419 160.255 12.776C160.328 12.5209 160.334 12.2515 160.274 11.9932C160.214 11.7348 160.089 11.4962 159.911 11.2998C159.413 10.8575 158.795 10.574 158.136 10.4858L154.007 9.65795L153.278 13.2589L157.406 14.0177ZM158.315 8.49901C158.615 8.55329 158.923 8.55329 159.223 8.49901C159.476 8.48218 159.723 8.41058 159.947 8.28913C160.17 8.16767 160.364 7.99924 160.517 7.79537C160.67 7.57684 160.773 7.32719 160.819 7.06414C160.874 6.81886 160.874 6.56439 160.819 6.31911C160.769 6.0884 160.66 5.87462 160.503 5.69825C160.334 5.50701 160.128 5.35212 159.897 5.24295C159.62 5.0986 159.323 4.99631 159.017 4.93942L155.163 4.153L154.448 7.6712L158.315 8.49901Z" fill="white"/>
<path d="M164.095 17.7568L168.361 5.03613L174.567 7.11946C175.189 7.31775 175.775 7.61596 176.301 8.00246C176.755 8.34203 177.143 8.76305 177.443 9.24417C177.716 9.70315 177.885 10.2165 177.939 10.748C177.991 11.3084 177.921 11.8734 177.732 12.4036C177.582 12.8724 177.344 13.308 177.031 13.6868C176.74 14.0346 176.379 14.3167 175.971 14.5146C175.538 14.7106 175.07 14.8185 174.595 14.8319C174.072 14.8438 173.552 14.7693 173.053 14.6111C173.52 14.8165 173.91 15.1641 174.168 15.6045C174.454 16.1573 174.622 16.7632 174.664 17.3843L175.063 21.5234L172.489 20.6542L172.076 16.5841C172.053 16.3355 172.002 16.0903 171.925 15.8529C171.858 15.6566 171.755 15.4742 171.622 15.3148C171.476 15.1442 171.299 15.0037 171.099 14.9009C170.844 14.7626 170.577 14.6472 170.301 14.556L168.044 13.7971L166.434 18.6122L164.095 17.7568ZM172.352 12.9279C172.689 13.0459 173.041 13.1155 173.398 13.1349C173.697 13.1484 173.997 13.1015 174.278 12.9969C174.537 12.896 174.768 12.7352 174.953 12.5278C175.155 12.3061 175.305 12.0422 175.393 11.7552C175.495 11.4776 175.533 11.1804 175.503 10.886C175.484 10.6165 175.399 10.3558 175.255 10.1272C175.083 9.88378 174.869 9.67346 174.622 9.50631C174.318 9.31126 173.99 9.15812 173.645 9.05102L170.053 7.83689L168.719 11.7276L172.352 12.9279Z" fill="white"/>
<path d="M176.824 22.0749L186.98 12.0859L190.173 13.6312L188.604 27.7868L186.251 26.6416L186.664 23.3442L181.462 20.8193L179.136 23.1924L176.824 22.0749ZM186.953 21.1367L187.82 14.3624L183.031 19.3155L186.953 21.1367Z" fill="white"/>
<path d="M200.467 35.499L197.384 33.4708L198.623 20.5846L192.361 30.2424L190.379 28.9455L197.701 17.7148L201.031 19.8947L199.861 32.1463L205.806 23.0266L207.802 24.3373L200.467 35.499Z" fill="white"/>
<path d="M211.325 26.9453L214.862 29.9668C215.372 30.3717 215.834 30.8347 216.238 31.3465C216.589 31.8287 216.88 32.3523 217.105 32.9056C217.306 33.4331 217.435 33.9853 217.49 34.5474C217.54 35.1102 217.508 35.6773 217.394 36.2306C217.274 36.8036 217.085 37.3596 216.829 37.8862C216.536 38.4572 216.181 38.994 215.77 39.4866C215.362 39.9703 214.9 40.4054 214.394 40.7836C213.92 41.1283 213.401 41.4068 212.852 41.6114C212.325 41.8043 211.774 41.925 211.215 41.9701C210.647 42.0044 210.078 41.9626 209.522 41.8459C208.945 41.7114 208.386 41.5075 207.857 41.2388C207.285 40.9382 206.749 40.5725 206.26 40.1489L202.724 37.1274L211.325 26.9453ZM207.568 38.4933C208.039 38.907 208.579 39.234 209.164 39.4591C209.681 39.6596 210.237 39.7352 210.788 39.6798C211.346 39.6263 211.886 39.4521 212.371 39.1693C212.924 38.8304 213.417 38.4014 213.829 37.9C214.262 37.4117 214.607 36.8515 214.848 36.2444C215.047 35.7259 215.136 35.1714 215.109 34.6164C215.075 34.0905 214.929 33.5779 214.683 33.1125C214.366 32.5824 213.956 32.1148 213.472 31.7328L211.806 30.3531L205.958 37.2516L207.568 38.4933Z" fill="white"/>
<path d="M226.82 41.0176C227.339 41.5724 227.775 42.1998 228.114 42.8802C228.408 43.455 228.582 44.0842 228.623 44.729C228.67 45.3266 228.576 45.927 228.348 46.4812C228.095 47.0652 227.72 47.5877 227.247 48.0126L225.692 46.2604C225.942 46.0325 226.135 45.749 226.256 45.4326C226.355 45.1257 226.393 44.8021 226.366 44.4806C226.314 44.1215 226.207 43.7725 226.05 43.4459C225.849 43.0697 225.599 42.7218 225.307 42.4111C225.053 42.1343 224.772 41.8846 224.467 41.6661C224.179 41.4622 223.864 41.2996 223.531 41.1832C223.233 41.0907 222.92 41.0579 222.609 41.0866C222.305 41.1363 222.023 41.2756 221.797 41.4867C221.596 41.6579 221.456 41.8905 221.398 42.1489C221.372 42.415 221.405 42.6836 221.495 42.9354C221.622 43.266 221.779 43.5845 221.963 43.8874C222.183 44.2323 222.444 44.6186 222.733 45.0463L223.091 45.5568L223.738 46.5501C223.954 46.8889 224.151 47.2389 224.33 47.5987C224.495 47.9493 224.629 48.3141 224.729 48.6887C224.832 49.047 224.874 49.4201 224.853 49.7924C224.82 50.1775 224.712 50.5524 224.536 50.8961C224.33 51.307 224.045 51.6728 223.697 51.9723C223.244 52.4195 222.685 52.7426 222.073 52.9105C221.494 53.0554 220.889 53.0554 220.311 52.9105C219.662 52.7563 219.047 52.4851 218.495 52.1103C217.841 51.6655 217.245 51.1419 216.719 50.5512C216.136 49.9429 215.64 49.2555 215.247 48.5093C214.924 47.901 214.723 47.2356 214.655 46.5501C214.596 45.9309 214.685 45.3063 214.917 44.729C215.183 44.1382 215.573 43.6114 216.059 43.1837L217.669 44.9359C217.405 45.1743 217.203 45.4723 217.077 45.8051C216.962 46.1372 216.929 46.4922 216.981 46.8399C217.041 47.2389 217.177 47.6228 217.38 47.9712C217.613 48.4012 217.9 48.7999 218.233 49.1577C218.524 49.4843 218.852 49.7759 219.21 50.0269C219.515 50.2549 219.854 50.4319 220.215 50.5512C220.524 50.6593 220.855 50.6877 221.178 50.634C221.51 50.5818 221.818 50.4275 222.059 50.1925C222.274 50.0113 222.424 49.764 222.486 49.4889C222.56 49.2273 222.56 48.9502 222.486 48.6887C222.371 48.3682 222.218 48.0625 222.031 47.7781L221.33 46.6881L220.875 46.0397L220.394 45.3084C220.229 45.0601 220.063 44.7979 219.912 44.5358C219.758 44.2826 219.62 44.0199 219.499 43.7494C219.383 43.4905 219.286 43.223 219.21 42.9492C219.137 42.6833 219.09 42.4105 219.073 42.1352C219.059 41.8657 219.087 41.5959 219.155 41.3349C219.224 41.0572 219.335 40.7919 219.485 40.5485C219.66 40.259 219.878 39.9983 220.132 39.7759C220.445 39.4853 220.803 39.2477 221.192 39.0722C221.55 38.912 221.931 38.8096 222.32 38.7687C222.717 38.7418 223.115 38.7697 223.504 38.8515C223.913 38.9509 224.309 39.0943 224.687 39.2792C225.044 39.4913 225.38 39.7361 225.692 40.0104C226.095 40.3143 226.473 40.6512 226.82 41.0176Z" fill="white"/>
<path d="M147.36 184.63L133.406 198.634L147.347 184.63H147.36Z" fill="white"/>
<path d="M28.583 83.5952L21.9637 79.263L14.6424 82.2845L16.7067 74.6273L11.5873 68.5843L19.4866 68.1842L23.6426 61.4375L26.4637 68.8464L34.1428 70.709L27.9913 75.6896L28.583 83.5952Z" fill="white"/>
<path d="M20.1059 120.584L12.6332 117.977L6.26158 122.682L6.42672 114.748L0 110.113L7.56894 107.822L9.97724 100.262L14.4911 106.774L22.4041 106.732L17.6287 113.051L20.1059 120.584Z" fill="white"/>
<path d="M23.2435 155.146L15.3168 155.201L10.858 161.754L8.38089 154.221L0.784424 152.014L7.16985 147.309L6.92214 139.39L13.3489 144.012L20.8077 141.321L18.3994 148.882L23.2435 155.146Z" fill="white"/>
<path d="M237.417 83.485L244.036 79.139L251.358 82.1605L249.293 74.5033L254.413 68.4602L246.513 68.0601L242.357 61.3135L239.536 68.7224L231.857 70.5988L238.009 75.5656L237.417 83.485Z" fill="white"/>
<path d="M245.894 120.46L253.367 117.867L259.738 122.557L259.573 114.624L266 110.002L258.431 107.698L256.023 100.151L251.509 106.663L243.596 106.622L248.371 112.941L245.894 120.46Z" fill="white"/>
<path d="M242.756 155.022L250.683 155.077L255.142 161.63L257.619 154.111L265.216 151.89L258.83 147.199L259.064 139.266L252.651 143.888L245.192 141.197L247.601 148.758L242.756 155.022Z" fill="white"/>
</svg>
