<svg xmlns="http://www.w3.org/2000/svg" viewBox="0 0 622.36 238.3"><defs><style>.cls-1{fill:#fff;}</style></defs><g id="Layer_2" data-name="Layer 2"><g id="Layer_1-2" data-name="Layer 1"><path class="cls-1" d="M217.11,140.51l21.2-21.23-49.12-49L168,49,118.83,0,70,48.9,48.82,70.12,0,119l21.23,21.19L70.05,91.32,98,119.17,70.32,146.84,49.13,168.07l21.23,21.19,27.88,27.85,21.23,21.19,21.2-21.23,27.62-27.66,21.19-21.23L168.26,147l-27.9-27.85L168,91.47Zm-70.05,27.71-27.62,27.66L91.55,168l27.62-27.66ZM119.14,98,91.24,70.09l27.63-27.67,27.89,27.85Z"/><path class="cls-1" d="M342.34,16.62v91.81H321.81c-10.64-18.62-36.31-63.53-41.28-74h-.22c.66,8.86.81,26.59.81,43.07v31H265.25V23.58h0c0-3.41-3.29-7-8-7H287c12.05,20.9,35.79,61,40.33,71h.22c-1-10.33-.94-25.77-.94-40.81V16.62Z"/><path class="cls-1" d="M413.08,76.9H367c0,10.33,5.23,19.19,15.37,19.19,8.84,0,11.51-4,13.43-8.39h16.55c-2.51,8.49-9.92,21.51-30.44,21.51-22.13,0-31.54-17-31.54-34.8,0-21,10.73-36.62,32.25-36.62,22.95,0,30.67,17.2,30.67,33.39A44.91,44.91,0,0,1,413.08,76.9ZM396.73,66.41c-.13-9-4.14-16.51-14.17-16.51s-14.23,7-15.14,16.51Z"/><path class="cls-1" d="M435,39.38c6.39,10.57,19.92,33.73,19.92,33.73s-12.69,22.35-19.55,34.51H416.56L437.51,73,419.45,44c-.81-1.33-2.88-4.6-6-4.6H435Zm48.32,68.24H464.51C457.65,95.47,445,73.11,445,73.11S458.49,50,464.89,39.39h18.36L462.33,73Z"/><path class="cls-1" d="M546.2,107.62H530.43a30.65,30.65,0,0,1-1-7.43c-2.45,4.07-7.36,9-19.82,9-16.33,0-23.25-10.7-23.25-21.21,0-15.44,12.31-22.54,32.41-22.54h10.37V60.73c0-5.23-1.8-10.87-11.91-10.87-9.12,0-10.93,4.14-11.92,9.22H489.55c1-11.21,7.91-21.38,28.28-21.29,17.74.1,27.45,7.12,27.45,23.12v30A138.59,138.59,0,0,0,546.2,107.62Zm-17-31.8h-8.82C508.24,75.82,503,79.39,503,87c0,5.66,3.65,10.16,11,10.16,13.49,0,15.22-9.26,15.22-19.41Z"/><path class="cls-1" d="M329.75,194.05c0,16.09-12.1,27.63-35.74,27.63-23.23,0-34.71-11.87-36.81-27.7h17.4c2.22,9.84,9.15,14.53,20.69,14.53,11.88,0,16.8-5,16.8-12.44,0-8.07-4.46-12-21.08-15.9-23.84-5.65-30.47-14.17-30.47-26.73,0-15.2,11.31-26.15,32.62-26.15,23.52,0,33,13,34.27,25.9H310c-1.19-6.51-5-12.84-17.37-12.84-9.12,0-14.47,3.91-14.47,11.2s4.34,10,19.6,13.61C324.32,171.48,329.76,181.5,329.75,194.05Z"/><path class="cls-1" d="M359.29,164v35.79c0,5.67,1.6,8.15,7.41,8.15a29.34,29.34,0,0,0,4.85-.33v11.61c-3.46,1.21-8.23,1.29-11.85,1.29-12.41,0-16.91-6.57-16.91-18.31V164.05h-11V151.39h11v0h16.5v0h13.94V164ZM342.78,148.5h0V129.58h16.46v2.5A16.43,16.43,0,0,1,342.78,148.5Z"/><path class="cls-1" d="M445.31,219.62H429.17c-.26-1.81-.4-5.64-.49-8.66-3.81,7.08-10,10.26-19.42,10.26-13.09,0-22.7-7.53-22.7-25.24V156c0-2.26-2.17-4.6-5.31-4.6H403v41.23c0,8,2.49,14.92,11.73,14.92,9.93,0,13.92-5.38,13.92-20.08V151.39h16.51v48.38C445.18,206.37,445.22,214.21,445.31,219.62Z"/><path class="cls-1" d="M518.28,219.62H501.71l-.07-8c-3.31,6-9.54,9.58-20.06,9.58-17.35,0-28.27-14-28.27-35.09s11.66-36.33,30.83-36.33c10.57,0,15.89,3.94,17.5,7.26V134.18c0-2.25-2.17-4.6-5.31-4.6h21.81v71.11C518.14,207,518.14,213.26,518.28,219.62Zm-16-34.5c0-12.84-2.16-21.92-15.52-21.92-10.63,0-16.46,8.34-16.46,22.46,0,14.37,6.08,22.15,15.82,22.15C500.11,207.81,502.28,196.66,502.28,185.12Z"/><path class="cls-1" d="M548.21,151.39v68.23h-16.5V156c0-2.25-2.18-4.58-5.31-4.58Zm-16.47-2.89h0V129.58h16.46v2.5A16.44,16.44,0,0,1,531.74,148.5Z"/><path class="cls-1" d="M622.36,185.37c0,20.31-12,35.84-33.35,35.84-20.62,0-32.79-15.11-32.79-35.52,0-20.75,12.35-35.9,33.64-35.9C609.57,149.79,622.36,164,622.36,185.37Zm-16.8.22c0-14.64-5.83-22.67-16.37-22.67-10.11,0-16.16,7.77-16.16,22.58,0,13.75,6.26,22.59,16.42,22.59C599.78,208.09,605.56,199.44,605.56,185.59Z"/></g></g></svg>