<svg width="134" height="63" viewBox="0 0 134 63" fill="none" xmlns="http://www.w3.org/2000/svg">
<g clip-path="url(#clip0_777_1852)">
<path d="M68.3622 27.1632V5.94831H71.6704L80.2086 18.2856L82.2844 21.6147L82.0654 17.592V5.92383H85.625V27.1387H82.3817L73.5921 14.6138L71.6704 11.5947L71.9218 15.5032V27.1632H68.3622Z" fill="white"/>
<path d="M88.7063 19.4606C88.7063 14.6138 91.6983 11.4071 96.0039 11.4071C100.609 11.4071 103.156 14.4833 103.156 18.7507C103.158 19.2727 103.117 19.794 103.034 20.3092H92.0794C92.2659 23.0671 93.8714 24.5522 96.2958 24.5522C98.9797 24.5522 100.172 23.1569 100.739 21.8595L102.912 24.1442C102.185 25.2286 101.191 26.1051 100.027 26.6885C98.8637 27.2719 97.5698 27.5423 96.2715 27.4733C91.6983 27.4814 88.7063 24.2747 88.7063 19.4606ZM92.1118 18.0327H99.9851C99.7338 15.5848 98.3634 14.263 96.012 14.263C93.8389 14.263 92.4362 15.5032 92.1118 18.0327Z" fill="white"/>
<path d="M103.415 27.1631L108.831 19.4278L103.731 11.7252H107.785L109.991 15.2094L111.41 17.6572L112.707 15.3073L114.978 11.7252H119.032L113.705 19.3626L118.87 27.1631H114.815L112.553 23.5811L111.102 21.1332L109.683 23.5403L107.412 27.155L103.415 27.1631Z" fill="white"/>
<path d="M119.478 19.4279C119.478 14.4505 121.91 11.3744 125.559 11.3744C128.616 11.3744 129.97 13.4388 130.473 15.8458V11.7253H134V27.1631H130.473V23.0426C129.97 25.417 128.673 27.4814 125.608 27.4814C121.87 27.4814 119.478 24.4052 119.478 19.4279ZM126.946 24.5929C129.435 24.5929 130.473 22.912 130.473 20.3825V18.4732C130.473 15.9437 129.435 14.2629 126.946 14.2629C124.675 14.2629 122.972 15.9437 122.972 19.4279C122.972 22.912 124.675 24.5929 126.946 24.5929Z" fill="white"/>
<path d="M68.3622 56.0807V34.8658H71.9218V43.6536H82.0654V34.8413H85.625V56.0562H82.0654V46.8277H71.9218V56.0807H68.3622Z" fill="white"/>
<path d="M89.6549 51.4053V40.6428H93.1821V50.3119C93.1821 52.2131 93.8064 53.5105 96.1741 53.5105C98.7526 53.5105 99.6364 51.8296 99.6364 49.3001V40.6428H103.196V56.0807H99.6364V51.8622C99.0688 54.3101 97.4958 56.3989 94.4389 56.3989C91.382 56.3989 89.6549 54.5875 89.6549 51.4053Z" fill="white"/>
<path d="M106.91 56.0807V34.8658H110.437V44.796C110.948 42.389 112.302 40.3246 115.351 40.3246C119.105 40.3246 121.497 43.4008 121.497 48.3781C121.497 53.3554 119.064 56.4316 115.294 56.4316C112.237 56.4316 110.948 54.3672 110.429 51.9928V56.0726L106.91 56.0807ZM113.964 53.5431C116.202 53.5431 117.872 51.8622 117.872 48.3781C117.872 44.894 116.202 43.2457 113.964 43.2457C111.483 43.2457 110.437 44.9266 110.437 47.4561V49.3899C110.437 51.8949 111.483 53.5431 113.964 53.5431Z" fill="white"/>
<path d="M123.702 56.0806V51.5765H127.756V56.0806H123.702Z" fill="white"/>
<path d="M31.2175 0L0 31.4633L5.87862 37.3708L31.2256 11.8232L56.7347 37.4524L62.6052 31.5367L31.2175 0Z" fill="white"/>
<path d="M18.5503 12.7804L12.6775 18.6985L44.0618 50.2366L49.9345 44.3186L18.5503 12.7804Z" fill="white"/>
<path d="M18.6206 38.3697L12.7478 44.2877L31.3776 63.0088L37.2503 57.0907L18.6206 38.3697Z" fill="white"/>
<path d="M43.9753 12.816L12.7606 44.2825L18.6426 50.1912L49.8573 18.7248L43.9753 12.816Z" fill="white"/>
<path d="M44.0542 38.4069L25.5109 57.0996L31.3929 63.0084L49.9362 44.3156L44.0542 38.4069Z" fill="white"/>
</g>
<defs>
<clipPath id="clip0_777_1852">
<rect width="134" height="63" fill="white"/>
</clipPath>
</defs>
</svg>
