<svg width="40" height="40" viewBox="0 0 40 40" fill="none" xmlns="http://www.w3.org/2000/svg">
<path d="M32.0946 24.8545C30.5961 25.7654 28.8749 26.2445 27.1212 26.2388C25.652 26.2272 24.1994 25.9267 22.8462 25.3545C21.8032 26.8268 21.2451 28.5876 21.2493 30.392V34.9998C21.2497 35.1711 21.2148 35.3407 21.1469 35.4981C21.079 35.6554 20.9794 35.797 20.8544 35.9143C20.7294 36.0315 20.5817 36.1218 20.4203 36.1795C20.259 36.2372 20.0875 36.2611 19.9165 36.2498C19.5952 36.2218 19.2964 36.0734 19.0799 35.8343C18.8634 35.5953 18.7454 35.2832 18.7493 34.9607V33.017L12.715 26.9826C11.8179 27.3172 10.8692 27.4923 9.91183 27.4998C8.59379 27.5032 7.30041 27.1425 6.17433 26.4576C2.76964 24.3888 0.936826 19.6279 1.29151 13.717C1.30937 13.4112 1.4389 13.1226 1.6555 12.9059C1.87211 12.6893 2.16071 12.5598 2.46651 12.542C8.37745 12.1935 13.1384 14.0201 15.2009 17.4248C16.0112 18.7593 16.365 20.3213 16.2087 21.8748C16.199 21.9951 16.1546 22.1101 16.0809 22.2058C16.0073 22.3014 15.9075 22.3737 15.7936 22.4139C15.6797 22.4541 15.5567 22.4604 15.4393 22.4321C15.3219 22.4038 15.2152 22.3421 15.1321 22.2545L12.1321 19.1138C11.8958 18.8893 11.5811 18.766 11.2552 18.7702C10.9292 18.7743 10.6178 18.9057 10.3873 19.1362C10.1568 19.3667 10.0254 19.6781 10.0213 20.0041C10.0171 20.33 10.1404 20.6447 10.365 20.881L18.7837 29.5138C18.7931 29.392 18.804 29.2701 18.8165 29.1498C19.0899 26.8322 20.1125 24.6673 21.729 22.9841L29.6337 14.631C29.8683 14.3967 30.0001 14.0788 30.0002 13.7472C30.0004 13.4156 29.8688 13.0976 29.6345 12.8631C29.4001 12.6285 29.0822 12.4966 28.7507 12.4965C28.4191 12.4964 28.1011 12.6279 27.8665 12.8623L20.2103 20.9591C20.1336 21.0403 20.0366 21.0995 19.9294 21.1305C19.8222 21.1615 19.7086 21.1632 19.6004 21.1355C19.4923 21.1077 19.3936 21.0515 19.3145 20.9727C19.2355 20.8939 19.179 20.7953 19.1509 20.6873C18.4103 17.956 18.7368 15.2373 20.1509 12.9029C22.9415 8.29665 29.4353 5.83102 37.5228 6.30602C37.8286 6.32388 38.1172 6.45341 38.3338 6.67001C38.5504 6.88662 38.6799 7.17522 38.6978 7.48102C39.1665 15.5701 36.7009 22.0638 32.0946 24.8545Z" fill="#141414"/>
</svg>
