<?xml version="1.0" standalone="no"?>
<!DOCTYPE svg PUBLIC "-//W3C//DTD SVG 20010904//EN"
 "http://www.w3.org/TR/2001/REC-SVG-20010904/DTD/svg10.dtd">
<svg version="1.0" xmlns="http://www.w3.org/2000/svg"
 width="700.000000pt" height="700.000000pt" viewBox="0 0 700.000000 700.000000"
 preserveAspectRatio="xMidYMid meet">
<metadata>
Created by potrace 1.14, written by Peter Selinger 2001-2017
</metadata>
<g transform="translate(0.000000,700.000000) scale(0.100000,-0.100000)"
fill="#000000" stroke="none">
<path d="M2415 5924 c-588 -590 -1373 -1376 -1743 -1746 l-672 -673 329 -329
328 -328 705 706 c388 388 708 706 712 706 4 0 179 -171 389 -381 l381 -380
-709 -709 -710 -710 1042 -1041 1041 -1042 1027 1029 c564 566 1031 1035 1037
1042 8 9 -160 182 -703 722 l-714 710 381 381 381 381 714 -711 714 -711 327
327 328 328 -1752 1752 c-964 964 -1755 1752 -1758 1751 -3 0 -486 -483 -1075
-1074z m1464 -625 l382 -381 -381 -381 -381 -381 -379 379 c-209 209 -380 384
-380 390 0 13 731 751 746 753 6 1 183 -169 393 -379z m3 -2836 c208 -208 378
-382 378 -387 0 -11 -740 -756 -751 -756 -3 0 -177 171 -387 381 l-382 380
377 380 c208 208 380 379 382 379 3 0 175 -170 383 -377z"/>
</g>
</svg>
